<svg xmlns="http://www.w3.org/2000/svg" width="1080" height="1920"><defs><linearGradient id="g" x2="0" y2="1"><stop stop-color="#000"/><stop offset=".5" stop-color="#1b1b1b"/><stop offset="1" stop-color="#000"/></linearGradient></defs><rect width="1080" height="1920" fill="url(#g)"/><g fill="none" stroke="#444"><path d="M540 0 C300 250 800 450 540 700 C280 950 800 1150 540 1400 C300 1650 720 1780 540 1920" stroke-width="5"/><path d="M400 0 C180 280 650 430 380 720 C130 990 670 1180 400 1500 C220 1710 500 1810 420 1920" opacity=".5" stroke-width="2"/><path d="M680 0 C900 280 430 430 700 720 C950 990 410 1180 680 1500 C860 1710 580 1810 660 1920" opacity=".5" stroke-width="2"/></g><text x="540" y="1040" text-anchor="middle" fill="#333" font-size="145" font-family="sans-serif" font-weight="900">DMB</text></svg>